<svg xmlns="http://www.w3.org/2000/svg" width="504" height="111" fill="none" viewBox="0 0 504 111"><path fill="url(#paint0_linear_529_1918)" fill-opacity=".5" d="M11.3284 79.1569V26.4554H493.604V79.1569H11.3284Z"/><path fill="url(#paint1_linear_529_1918)" fill-opacity=".5" d="M502 15.6755H319.164L348.082 1.70166H458.157V7.69047H486.608V1.70166H502V15.6755Z"/><path fill="url(#paint2_linear_529_1918)" fill-opacity=".5" d="M2 108.702V93.9293H226.347L197.896 108.702H63.1007V103.911H36.9813V108.702H2Z"/><path stroke="url(#paint3_linear_529_1918)" stroke-width="3" d="M2 25.6569V15.2763H173.642M502 15.6755V71.1718M502 15.6755H319.164M502 15.6755V1.70166H486.608V7.69047H458.157V1.70166H348.082L319.164 15.6755M221.216 15.6755H319.164M502 81.5524V93.9293H442.299M2 44.0226V93.9293M2 93.9293V108.702H36.9813V103.911H63.1007V108.702H197.896L226.347 93.9293M2 93.9293H226.347M226.347 93.9293H420.843M11.3284 26.4554V79.1569H493.604V26.4554H11.3284Z"/><defs><linearGradient id="paint0_linear_529_1918" x1="2" x2="438.463" y1="15.702" y2="76.128" gradientUnits="userSpaceOnUse"><stop stop-color="#fff" stop-opacity=".1"/><stop offset=".487" stop-color="#fff" stop-opacity=".2"/><stop offset="1" stop-color="#fff" stop-opacity=".1"/></linearGradient><linearGradient id="paint1_linear_529_1918" x1="2" x2="438.463" y1="15.702" y2="76.128" gradientUnits="userSpaceOnUse"><stop stop-color="#fff" stop-opacity=".1"/><stop offset=".487" stop-color="#fff" stop-opacity=".2"/><stop offset="1" stop-color="#fff" stop-opacity=".1"/></linearGradient><linearGradient id="paint2_linear_529_1918" x1="2" x2="438.463" y1="15.702" y2="76.128" gradientUnits="userSpaceOnUse"><stop stop-color="#fff" stop-opacity=".1"/><stop offset=".487" stop-color="#fff" stop-opacity=".2"/><stop offset="1" stop-color="#fff" stop-opacity=".1"/></linearGradient><linearGradient id="paint3_linear_529_1918" x1="2" x2="496.347" y1="16.702" y2="120.599" gradientUnits="userSpaceOnUse"><stop stop-color="#0DB3B3"/><stop offset="0" stop-color="#43C9ED"/><stop offset="1" stop-color="#1C77A5"/></linearGradient></defs></svg>