<svg xmlns="http://www.w3.org/2000/svg" width="197" height="221" fill="none" viewBox="0 0 197 221"><path stroke="url(#paint0_linear_1272_44)" stroke-width="3" d="M89.25 4.07254C94.9739 0.767833 102.026 0.767834 107.75 4.07254L186.044 49.2755C191.768 52.5802 195.294 58.6876 195.294 65.297V155.703C195.294 162.312 191.768 168.42 186.044 171.724L107.75 216.927C102.026 220.232 94.9739 220.232 89.25 216.927L10.9561 171.724C5.23219 168.42 1.70612 162.312 1.70612 155.703V65.297C1.70612 58.6876 5.2322 52.5802 10.9561 49.2755L89.25 4.07254Z"/><path stroke="url(#paint1_linear_1272_44)" stroke-width="3" d="M89.25 4.07254C94.9739 0.767833 102.026 0.767834 107.75 4.07254L186.044 49.2755C191.768 52.5802 195.294 58.6876 195.294 65.297V155.703C195.294 162.312 191.768 168.42 186.044 171.724L107.75 216.927C102.026 220.232 94.9739 220.232 89.25 216.927L10.9561 171.724C5.23219 168.42 1.70612 162.312 1.70612 155.703V65.297C1.70612 58.6876 5.2322 52.5802 10.9561 49.2755L89.25 4.07254Z"/><path stroke="url(#paint2_linear_1272_44)" stroke-width="3" d="M89.25 4.07254C94.9739 0.767833 102.026 0.767834 107.75 4.07254L186.044 49.2755C191.768 52.5802 195.294 58.6876 195.294 65.297V155.703C195.294 162.312 191.768 168.42 186.044 171.724L107.75 216.927C102.026 220.232 94.9739 220.232 89.25 216.927L10.9561 171.724C5.23219 168.42 1.70612 162.312 1.70612 155.703V65.297C1.70612 58.6876 5.2322 52.5802 10.9561 49.2755L89.25 4.07254Z"/><defs><linearGradient id="paint0_linear_1272_44" x1="98.5" x2="98.822" y1="-3" y2="46.837" gradientUnits="userSpaceOnUse"><stop stop-color="#43C9ED"/><stop offset="1" stop-color="#43C9ED" stop-opacity="0"/></linearGradient><linearGradient id="paint1_linear_1272_44" x1="194.959" x2="56.38" y1="163.231" y2="101.176" gradientUnits="userSpaceOnUse"><stop stop-color="#43C9ED"/><stop offset=".204" stop-color="#43C9ED" stop-opacity="0"/></linearGradient><linearGradient id="paint2_linear_1272_44" x1=".755" x2="34" y1="169.34" y2="153" gradientUnits="userSpaceOnUse"><stop stop-color="#43C9ED"/><stop offset="1" stop-color="#43C9ED" stop-opacity="0"/></linearGradient></defs></svg>